<?xml version="1.0" encoding="UTF-8" standalone="no"?>
<svg xmlns="http://www.w3.org/2000/svg" version="1.1" viewBox="0.00 0.00 1100.00 445.00">
  <g stroke-width="2.00" fill="none" stroke-linecap="butt">
    <path stroke="#80c8f5" vector-effect="non-scaling-stroke" d="   M 874.18 161.80   C 861.52 148.27 844.32 141.79 826.07 144.17   C 802.96 147.19 784.27 164.48 779.60 187.37   Q 778.51 192.74 778.51 207.25   Q 778.52 253.58 778.50 254.77   Q 778.43 261.08 779.57 263.53   Q 781.89 268.51 785.86 270.41   C 793.38 274.01 801.92 271.42 805.38 263.88   Q 806.67 261.08 806.56 252.99   Q 806.43 244.26 806.52 209.45   Q 806.55 195.87 807.26 192.68   Q 809.27 183.69 816.50 177.74   C 831.41 165.48 853.00 171.92 859.44 190.12   Q 860.94 194.35 860.82 203.66   Q 860.70 213.39 860.82 248.95   Q 860.85 256.03 866.78 260.27   C 871.28 263.49 878.36 263.62 882.68 260.44   Q 888.74 255.98 888.73 249.98   Q 888.72 240.79 888.76 204.24   Q 888.77 194.95 889.78 191.43   Q 891.71 184.60 896.40 179.88   Q 904.80 171.42 916.13 171.55   C 928.37 171.70 938.96 180.08 942.14 191.88   Q 943.09 195.42 943.05 206.40   Q 942.98 220.41 943.02 257.79   C 943.03 273.18 963.03 277.44 969.46 264.09   Q 970.50 261.93 970.50 256.24   Q 970.49 212.81 970.51 200.49   Q 970.51 197.51 970.24 196.07   C 969.57 192.58 969.45 188.90 968.44 185.07   C 960.96 156.63 933.81 139.23 905.06 144.67   Q 887.14 148.07 874.45 161.79   A 0.19 0.19 0.0 0 1 874.18 161.80"></path>
    <path stroke="#80c8f5" vector-effect="non-scaling-stroke" d="   M 868.49 300.32   C 888.24 302.47 906.76 296.74 918.23 279.98   Q 918.44 279.67 918.54 277.75   Q 918.57 277.18 918.00 277.26   Q 916.39 277.50 915.66 278.17   Q 907.60 285.50 896.84 288.57   Q 872.05 295.66 848.50 286.15   Q 842.22 283.61 835.18 276.99   Q 833.96 275.84 833.61 277.62   L 833.56 277.89   Q 833.27 279.39 834.36 280.89   Q 846.86 297.96 868.49 300.32"></path>
  </g>
  <path fill="#0091ea" d="   M 1029.48 214.20   A 153.88 153.88 0.0 0 1 875.60 368.08   A 153.88 153.88 0.0 0 1 721.72 214.20   A 153.88 153.88 0.0 0 1 875.60 60.32   A 153.88 153.88 0.0 0 1 1029.48 214.20   Z   M 874.18 161.80   C 861.52 148.27 844.32 141.79 826.07 144.17   C 802.96 147.19 784.27 164.48 779.60 187.37   Q 778.51 192.74 778.51 207.25   Q 778.52 253.58 778.50 254.77   Q 778.43 261.08 779.57 263.53   Q 781.89 268.51 785.86 270.41   C 793.38 274.01 801.92 271.42 805.38 263.88   Q 806.67 261.08 806.56 252.99   Q 806.43 244.26 806.52 209.45   Q 806.55 195.87 807.26 192.68   Q 809.27 183.69 816.50 177.74   C 831.41 165.48 853.00 171.92 859.44 190.12   Q 860.94 194.35 860.82 203.66   Q 860.70 213.39 860.82 248.95   Q 860.85 256.03 866.78 260.27   C 871.28 263.49 878.36 263.62 882.68 260.44   Q 888.74 255.98 888.73 249.98   Q 888.72 240.79 888.76 204.24   Q 888.77 194.95 889.78 191.43   Q 891.71 184.60 896.40 179.88   Q 904.80 171.42 916.13 171.55   C 928.37 171.70 938.96 180.08 942.14 191.88   Q 943.09 195.42 943.05 206.40   Q 942.98 220.41 943.02 257.79   C 943.03 273.18 963.03 277.44 969.46 264.09   Q 970.50 261.93 970.50 256.24   Q 970.49 212.81 970.51 200.49   Q 970.51 197.51 970.24 196.07   C 969.57 192.58 969.45 188.90 968.44 185.07   C 960.96 156.63 933.81 139.23 905.06 144.67   Q 887.14 148.07 874.45 161.79   A 0.19 0.19 0.0 0 1 874.18 161.80   Z   M 868.49 300.32   C 888.24 302.47 906.76 296.74 918.23 279.98   Q 918.44 279.67 918.54 277.75   Q 918.57 277.18 918.00 277.26   Q 916.39 277.50 915.66 278.17   Q 907.60 285.50 896.84 288.57   Q 872.05 295.66 848.50 286.15   Q 842.22 283.61 835.18 276.99   Q 833.96 275.84 833.61 277.62   L 833.56 277.89   Q 833.27 279.39 834.36 280.89   Q 846.86 297.96 868.49 300.32   Z"></path>
  <path fill="#0091ea" d="   M 614.06 269.91   Q 613.35 270.71 609.89 273.37   Q 600.23 280.80 586.38 281.00   Q 571.81 281.20 564.58 280.18   Q 537.59 276.37 531.79 250.29   Q 528.43 235.23 527.64 214.63   Q 526.49 184.48 523.99 115.30   Q 523.77 109.01 525.34 104.83   Q 529.54 93.70 540.38 94.19   C 551.16 94.68 555.04 103.03 555.03 112.62   Q 554.94 198.97 555.05 214.00   Q 555.05 214.17 555.27 220.50   Q 555.52 227.90 558.59 234.15   Q 563.44 244.04 574.94 245.10   Q 579.87 245.55 587.46 245.08   C 595.83 244.55 600.84 239.81 605.43 233.22   Q 615.96 218.09 619.96 213.47   Q 624.30 208.44 630.64 203.94   Q 642.07 195.82 655.63 198.37   C 670.03 201.08 678.57 213.55 681.84 227.36   Q 684.62 239.11 682.85 251.37   C 680.41 268.34 669.05 283.73 651.03 284.81   Q 628.97 286.13 614.89 269.92   Q 614.48 269.45 614.06 269.91   Z   M 656.46 233.25   C 649.30 222.52 636.79 230.27 631.75 238.21   C 629.85 241.21 629.01 246.01 631.64 248.53   Q 639.84 256.37 650.85 255.03   Q 657.51 254.22 658.96 248.64   Q 661.14 240.27 656.46 233.25   Z"></path>
  <path fill="#0091ea" d="   M 248.05 262.61   A 0.36 0.36 0.0 0 0 247.44 262.55   C 241.14 270.54 231.09 275.80 221.17 279.13   Q 206.32 284.11 188.71 286.22   Q 178.63 287.43 168.84 288.05   Q 143.78 289.63 120.30 288.01   Q 102.60 286.79 86.31 281.31   Q 73.91 277.14 64.81 268.83   Q 58.86 263.40 55.24 255.04   Q 52.28 248.18 51.83 239.04   Q 51.30 228.13 54.14 215.60   Q 56.32 206.03 59.84 199.95   Q 64.97 191.08 73.73 191.95   C 78.35 192.41 81.72 194.62 82.63 199.14   Q 83.51 203.51 82.62 207.91   Q 80.63 217.77 80.17 221.20   Q 77.98 237.36 90.89 244.81   Q 97.48 248.62 109.50 250.76   Q 118.94 252.45 130.09 252.88   Q 147.65 253.57 171.51 253.04   Q 191.08 252.59 207.51 249.07   Q 218.14 246.78 226.82 241.35   C 230.09 239.30 232.63 236.44 234.52 232.54   Q 237.31 226.79 239.52 221.77   Q 242.48 215.05 244.67 213.15   C 249.41 209.04 256.83 209.57 260.93 214.74   Q 262.11 216.24 262.76 220.44   Q 263.12 222.74 264.47 229.10   C 266.49 238.67 273.00 243.32 282.37 244.64   Q 284.61 244.95 287.40 244.97   Q 308.88 245.12 327.50 244.79   Q 336.81 244.63 345.02 241.77   C 350.55 239.84 355.32 234.77 352.26 228.55   Q 350.41 224.80 346.29 220.20   Q 339.50 212.63 331.65 205.86   Q 311.14 188.17 302.38 179.00   Q 297.60 174.00 294.61 169.46   Q 292.81 166.73 291.97 162.17   Q 291.06 157.20 291.70 149.71   Q 292.81 136.62 303.20 129.22   Q 307.53 126.13 319.13 120.64   C 341.66 109.96 368.15 102.57 393.69 96.37   Q 402.02 94.35 408.11 95.16   C 415.86 96.19 420.35 100.65 420.72 108.76   Q 421.09 116.95 414.65 121.13   Q 411.91 122.91 402.68 125.06   Q 363.99 134.06 327.83 148.07   C 325.57 148.95 323.23 150.19 323.25 152.78   Q 323.27 155.98 325.20 157.57   Q 346.72 175.28 367.12 195.14   Q 377.71 205.46 398.95 226.80   Q 402.09 229.94 406.63 233.48   Q 418.53 242.73 431.54 244.74   Q 435.29 245.32 444.55 245.28   C 453.98 245.25 460.63 245.79 468.01 243.29   C 476.49 240.41 478.92 232.77 477.17 224.54   Q 476.84 222.99 473.70 208.29   Q 472.56 202.98 473.97 198.48   C 476.62 190.02 483.91 186.70 492.33 188.81   Q 496.52 189.86 499.62 193.54   Q 502.99 197.55 504.32 202.22   Q 509.91 221.84 505.87 241.65   C 502.45 258.45 490.79 272.52 474.16 277.58   Q 465.70 280.15 458.91 280.39   Q 455.21 280.51 443.81 280.53   Q 433.90 280.55 428.79 279.71   Q 405.86 275.93 388.78 258.56   Q 383.37 253.06 378.26 246.14   Q 377.81 245.52 377.59 246.26   Q 370.38 270.56 344.94 276.39   Q 334.86 278.70 327.50 279.24   Q 301.79 281.14 277.42 280.32   C 264.97 279.91 253.72 273.99 248.05 262.61   Z"></path>
  <path fill="#ffffff" d="   M 874.18 161.80   A 0.19 0.19 0.0 0 0 874.45 161.79   Q 887.14 148.07 905.06 144.67   C 933.81 139.23 960.96 156.63 968.44 185.07   C 969.45 188.90 969.57 192.58 970.24 196.07   Q 970.51 197.51 970.51 200.49   Q 970.49 212.81 970.50 256.24   Q 970.50 261.93 969.46 264.09   C 963.03 277.44 943.03 273.18 943.02 257.79   Q 942.98 220.41 943.05 206.40   Q 943.09 195.42 942.14 191.88   C 938.96 180.08 928.37 171.70 916.13 171.55   Q 904.80 171.42 896.40 179.88   Q 891.71 184.60 889.78 191.43   Q 888.77 194.95 888.76 204.24   Q 888.72 240.79 888.73 249.98   Q 888.74 255.98 882.68 260.44   C 878.36 263.62 871.28 263.49 866.78 260.27   Q 860.85 256.03 860.82 248.95   Q 860.70 213.39 860.82 203.66   Q 860.94 194.35 859.44 190.12   C 853.00 171.92 831.41 165.48 816.50 177.74   Q 809.27 183.69 807.26 192.68   Q 806.55 195.87 806.52 209.45   Q 806.43 244.26 806.56 252.99   Q 806.67 261.08 805.38 263.88   C 801.92 271.42 793.38 274.01 785.86 270.41   Q 781.89 268.51 779.57 263.53   Q 778.43 261.08 778.50 254.77   Q 778.52 253.58 778.51 207.25   Q 778.51 192.74 779.60 187.37   C 784.27 164.48 802.96 147.19 826.07 144.17   C 844.32 141.79 861.52 148.27 874.18 161.80   Z"></path>
  <path fill="#0091ea" d="   M 150.41 190.72   Q 150.49 190.72 150.93 190.18   Q 158.06 181.35 168.39 183.19   C 177.03 184.74 182.54 191.69 182.56 200.37   C 182.57 209.04 177.09 216.01 168.46 217.59   Q 158.13 219.47 150.97 210.67   Q 150.53 210.13 150.44 210.13   Q 150.36 210.13 149.92 210.67   Q 142.79 219.50 132.46 217.66   C 123.82 216.11 118.31 209.16 118.29 200.49   C 118.28 191.81 123.76 184.84 132.40 183.26   Q 142.72 181.38 149.88 190.18   Q 150.32 190.72 150.41 190.72   Z"></path>
  <path fill="#ffffff" d="   M 868.49 300.32   Q 846.86 297.96 834.36 280.89   Q 833.27 279.39 833.56 277.89   L 833.61 277.62   Q 833.96 275.84 835.18 276.99   Q 842.22 283.61 848.50 286.15   Q 872.05 295.66 896.84 288.57   Q 907.60 285.50 915.66 278.17   Q 916.39 277.50 918.00 277.26   Q 918.57 277.18 918.54 277.75   Q 918.44 279.67 918.23 279.98   C 906.76 296.74 888.24 302.47 868.49 300.32   Z"></path>
  <path fill="#0091ea" d="   M 480.31 316.62   C 480.31 326.26 473.25 333.44 464.08 333.99   C 456.01 334.48 449.46 330.19 446.51 322.77   Q 446.25 322.13 445.97 322.76   C 442.41 330.82 435.50 335.15 426.76 333.81   C 418.22 332.51 412.06 325.43 412.06 316.59   C 412.07 307.75 418.24 300.67 426.78 299.38   C 435.52 298.05 442.42 302.39 445.98 310.45   Q 446.26 311.08 446.52 310.44   C 449.47 303.03 456.03 298.74 464.10 299.24   C 473.27 299.80 480.32 306.99 480.31 316.62   Z"></path>
</svg>
